<?xml version="1.0" encoding="UTF-8"?>
<svg id="_레이어_1" data-name="레이어 1" xmlns="http://www.w3.org/2000/svg" version="1.1" viewBox="0 0 888 741">
  <defs>
    <style>
      .cls-1 {
        fill: #3f3d56;
      }

      .cls-1, .cls-2, .cls-3, .cls-4, .cls-5, .cls-6, .cls-7, .cls-8 {
        stroke-width: 0px;
      }

      .cls-2 {
        fill: #ffb8b8;
      }

      .cls-3 {
        fill: #2f2e41;
      }

      .cls-4 {
        fill: #e6e6e6;
      }

      .cls-5 {
        fill: #575a89;
      }

      .cls-6 {
        fill: #000;
        isolation: isolate;
        opacity: .2;
      }

      .cls-7 {
        fill: #f9a826;
      }

      .cls-8 {
        fill: #fff;
      }
    </style>
  </defs>
  <path class="cls-4" d="M365.9,174.4h-4V63.9C361.9,28.6,333.2,0,297.9,0H63.9C28.6,0,0,28.6,0,63.9h0v606c0,35.3,28.6,63.9,63.9,63.9h234c35.3,0,63.9-28.6,63.9-63.9h0V253h4v-78.6Z"/>
  <path class="cls-8" d="M300.5,16.6h-30.5c4.7,11.6-.8,24.8-12.4,29.6-2.7,1.1-5.6,1.7-8.6,1.7H114.9c-12.5,0-22.7-10.2-22.7-22.7,0-2.9.6-5.8,1.7-8.6h-28.5c-26.4,0-47.7,21.4-47.7,47.7h0v605.1c0,26.4,21.4,47.7,47.7,47.7h235.1c26.4,0,47.7-21.4,47.7-47.7h0V64.4c0-26.4-21.4-47.7-47.7-47.7h0Z"/>
  <path class="cls-4" d="M113.7,139.6h-14c-1,0-1.9.8-1.9,1.9v6.2c0,1,.8,1.9,1.9,1.9h2.3v9.2h9.4v-9.2h2.3c1,0,1.9-.8,1.9-1.9v-6.2c0-1-.8-1.9-1.9-1.9Z"/>
  <path class="cls-4" d="M127.7,196c-8.6-12.6-13-27.6-12.6-42.8,0-.7-.5-1.4-1.2-1.5v-2.7h-14.8v2.6h-.2c-.8,0-1.5.7-1.5,1.5,0,0,0,0,0,.1,1.2,16.3-2.8,30.9-11.8,43.8-.5.7-.8,1.6-.8,2.5l1.6,50.2c0,2.3,2,4.2,4.3,4.2h33.5c2.4,0,4.3-1.9,4.3-4.3l.6-48.7c0-1.8-.5-3.5-1.5-5Z"/>
  <path class="cls-8" d="M122.4,212.7h-29.2c-1.7,0-3,1.3-3,3,0,.2,0,.3,0,.5l4.4,28.7h25.3l5.4-28.6c.3-1.6-.8-3.2-2.4-3.5-.2,0-.4,0-.6,0h0Z"/>
  <path class="cls-4" d="M270,289.9h-14c-1,0-1.9.8-1.9,1.9v6.2c0,1,.8,1.9,1.9,1.9h2.3v9.2h9.4v-9.2h2.3c1,0,1.9-.8,1.9-1.9v-6.2c0-1-.8-1.9-1.9-1.9Z"/>
  <path class="cls-4" d="M284,346.3c-8.6-12.6-13-27.6-12.6-42.8,0-.7-.5-1.4-1.2-1.5v-2.7h-14.8v2.6h-.2c-.8,0-1.5.7-1.5,1.5,0,0,0,0,0,.1,1.2,16.3-2.8,30.9-11.8,43.8-.5.7-.8,1.6-.8,2.5l1.6,50.2c0,2.3,2,4.2,4.3,4.2h33.5c2.4,0,4.3-1.9,4.3-4.3l.6-48.7c0-1.8-.5-3.5-1.5-5Z"/>
  <path class="cls-8" d="M278.7,362.9h-29.2c-1.7,0-3,1.3-3,3,0,.2,0,.3,0,.5l4.4,28.7h25.3l5.4-28.6c.3-1.6-.8-3.2-2.4-3.5-.2,0-.4,0-.6,0h0Z"/>
  <path class="cls-4" d="M93.9,502.3h-6.7c-.5,0-.9.4-.9.9h0v2.9c0,.5.4.9.9.9h1.1v4.4h4.5v-4.4h1.1c.5,0,.9-.4.9-.9h0v-2.9c0-.5-.4-.9-.9-.9h0Z"/>
  <path class="cls-4" d="M100.6,529c-4.1-6-6.2-13.1-6-20.3,0-.3-.2-.6-.6-.7v-1.3h-7v1.2h0c-.4,0-.7.3-.7.7,0,0,0,0,0,0,.6,7.4-1.3,14.7-5.6,20.8-.2.4-.4.8-.4,1.2l.8,23.8c0,1.1.9,2,2,2h15.9c1.1,0,2-.9,2-2l.3-23.1c0-.8-.2-1.7-.7-2.4Z"/>
  <rect class="cls-8" x="83.1" y="537.8" width="15.2" height="7.6"/>
  <path class="cls-4" d="M124.9,502.3h-6.7c-.5,0-.9.4-.9.9h0v2.9c0,.5.4.9.9.9h1.1v4.4h4.5v-4.4h1.1c.5,0,.9-.4.9-.9h0v-2.9c0-.5-.4-.9-.9-.9h0Z"/>
  <path class="cls-4" d="M131.6,529c-4.1-6-6.2-13.1-6-20.3,0-.3-.2-.6-.6-.7v-1.3h-7v1.2h0c-.4,0-.7.3-.7.7,0,0,0,0,0,0,.6,7.4-1.3,14.7-5.6,20.8-.2.4-.4.8-.4,1.2l.8,23.8c0,1.1.9,2,2,2h15.9c1.1,0,2-.9,2-2l.3-23.1c0-.8-.2-1.7-.7-2.4Z"/>
  <rect class="cls-8" x="114.1" y="537.8" width="15.2" height="7.6"/>
  <path class="cls-4" d="M155.9,502.3h-6.7c-.5,0-.9.4-.9.9h0v2.9c0,.5.4.9.9.9h1.1v4.4h4.5v-4.4h1.1c.5,0,.9-.4.9-.9h0v-2.9c0-.5-.4-.9-.9-.9h0Z"/>
  <path class="cls-4" d="M162.6,529c-4.1-6-6.2-13.1-6-20.3,0-.3-.2-.6-.6-.7v-1.3h-7v1.2h0c-.4,0-.7.3-.7.7,0,0,0,0,0,0,.6,7.4-1.3,14.7-5.6,20.8-.2.4-.4.8-.4,1.2l.8,23.8c0,1.1.9,2,2,2h15.9c1.1,0,2-.9,2-2l.3-23.1c0-.8-.2-1.7-.7-2.4Z"/>
  <rect class="cls-8" x="145.1" y="537.8" width="15.2" height="7.6"/>
  <path class="cls-4" d="M245.6,444.1h-14c-1,0-1.9.8-1.9,1.9h0v6.2c0,1,.8,1.9,1.9,1.9h2.3v9.2h9.4v-9.2h2.3c1,0,1.9-.8,1.9-1.9v-6.2c0-1-.8-1.9-1.9-1.9h0Z"/>
  <path class="cls-4" d="M259.6,500.5c-8.6-12.6-13-27.6-12.6-42.8,0-.7-.5-1.4-1.2-1.5v-2.7h-14.8v2.6h-.2c-.8,0-1.5.7-1.5,1.5,0,0,0,0,0,.1,1.2,16.3-2.8,30.9-11.8,43.8-.5.7-.8,1.6-.8,2.5l1.6,50.2c0,2.3,2,4.2,4.3,4.2h33.5c2.4,0,4.3-1.9,4.3-4.3l.6-48.7c0-1.8-.5-3.5-1.5-5Z"/>
  <path class="cls-8" d="M254.3,517.2h-29.2c-1.7,0-3,1.3-3,3,0,.2,0,.3,0,.5l4.4,28.7h25.3l5.4-28.6c.3-1.6-.8-3.2-2.4-3.5-.2,0-.4,0-.6,0h0Z"/>
  <path class="cls-4" d="M253.2,260.5h-83.7c5.9-31.6,4.5-69.8,0-110.9h83.7c-4.4,41.1-5.7,79.3,0,110.9Z"/>
  <circle class="cls-8" cx="211.9" cy="202" r="20.2"/>
  <path class="cls-4" d="M176.6,407.7h-83.7c5.9-31.6,4.5-69.8,0-110.9h83.7c-4.4,41.1-5.7,79.3,0,110.9Z"/>
  <circle class="cls-8" cx="135.3" cy="349.2" r="20.2"/>
  <path class="cls-4" d="M300.6,267.5h-83.7c5.9-31.6,4.5-69.8,0-110.9h83.7c-4.4,41.1-5.7,79.3,0,110.9Z"/>
  <circle class="cls-8" cx="259.3" cy="209" r="20.2"/>
  <path class="cls-4" d="M300.6,262.5h-83.7c5.9-31.6,4.5-69.8,0-110.9h83.7c-4.4,41.1-5.7,79.3,0,110.9Z"/>
  <circle class="cls-8" cx="259.3" cy="204" r="20.2"/>
  <path class="cls-4" d="M300.6,267.5h-83.7c5.9-31.6,4.5-69.8,0-110.9h83.7c-4.4,41.1-5.7,79.3,0,110.9Z"/>
  <circle class="cls-8" cx="259.3" cy="209" r="20.2"/>
  <rect class="cls-4" x="45.5" y="254.4" width="274.3" height="30.2"/>
  <rect class="cls-4" x="45.5" y="404.6" width="274.3" height="30.2"/>
  <rect class="cls-4" x="45.5" y="554.9" width="274.3" height="30.2"/>
  <path class="cls-7" d="M796.9,677.6l-68.3-48.3c23-22.4,44-54.4,64-90.6l68.3,48.3c-27.3,31-50.4,61.4-64,90.6Z"/>
  <circle class="cls-8" cx="796.9" cy="606" r="20.2"/>
  <path class="cls-4" d="M467.3,457.1h-7.5c-.5,0-1,.4-1,1v3.3c0,.5.4,1,1,1h1.2v4.9h5v-4.9h1.2c.5,0,1-.4,1-1v-3.3c0-.5-.4-1-1-1Z"/>
  <path class="cls-7" d="M474.8,487.2c-4.6-6.7-6.9-14.7-6.7-22.9,0-.4-.3-.7-.6-.8v-1.4h-7.9v1.4h-.1c-.4,0-.8.4-.8.8,0,0,0,0,0,0,.7,8.3-1.5,16.6-6.3,23.4-.3.4-.4.9-.4,1.4l.9,26.8c0,1.2,1.1,2.2,2.3,2.2h17.9c1.3,0,2.3-1,2.3-2.3l.3-26c0-1-.3-1.9-.8-2.7Z"/>
  <path class="cls-6" d="M465.7,458.2c0,1.2-1,2.1-2.1,2.1s-2.1-1-2.1-2.1"/>
  <rect class="cls-8" x="456.2" y="492.4" width="15.1" height="10.1"/>
  <g>
    <path class="cls-4" d="M704.6,561.7h-14c-1,0-1.9.8-1.9,1.9v6.2c0,1,.8,1.9,1.9,1.9h2.3v9.2h9.4v-9.2h2.3c1,0,1.9-.8,1.9-1.9h0v-6.2c0-1-.8-1.9-1.9-1.9Z"/>
    <path class="cls-7" d="M718.7,618.1c-8.6-12.6-13-27.6-12.6-42.8,0-.7-.5-1.4-1.2-1.5v-2.7h-14.8v2.6h-.2c-.8,0-1.5.7-1.5,1.5h0s0,0,0,.1c1.2,16.3-2.8,30.9-11.8,43.8-.5.7-.8,1.6-.8,2.5l1.6,50.2c0,2.3,2,4.2,4.3,4.2h33.5c2.4,0,4.3-1.9,4.3-4.3l.6-48.7c0-1.8-.5-3.5-1.5-5Z"/>
    <path class="cls-6" d="M701.7,563.7c0,2.2-1.8,4-4,4s-4-1.8-4-4"/>
    <path class="cls-8" d="M713.4,634.8h-29.2c-1.7,0-3,1.3-3,3s0,.3,0,.5l4.4,28.7h25.3l5.4-28.6c.3-1.6-.8-3.2-2.4-3.5-.2,0-.4,0-.6,0h0Z"/>
  </g>
  <g>
    <path class="cls-4" d="M628.1,485.9l-12.5,6.3c-.9.5-1.3,1.6-.8,2.5l2.8,5.5c.5.9,1.6,1.3,2.5.8l2.1-1,4.1,8.3,8.4-4.2-4.1-8.3,2.1-1c.9-.5,1.3-1.6.8-2.5h0l-2.8-5.5c-.5-.9-1.6-1.3-2.5-.8Z"/>
    <path class="cls-7" d="M666,530c-13.3-7.4-24-18.8-30.4-32.6-.3-.7-1-1-1.7-.8l-1.2-2.4-13.3,6.7,1.2,2.3h-.2c-.8.5-1.1,1.4-.7,2.1h0s0,0,0,0c8.4,14,11.4,28.8,9.1,44.5-.1.9,0,1.8.5,2.6l24,44.1c1.1,2,3.6,2.8,5.7,1.8l30-15c2.1-1.1,3-3.6,1.9-5.7l-21.3-43.8c-.8-1.6-2-2.9-3.6-3.8Z"/>
    <path class="cls-6" d="M626.4,489c1,2,.2,4.4-1.8,5.4s-4.4.2-5.4-1.8"/>
    <path class="cls-8" d="M668.7,547.3l-26.1,13.1c-1.5.7-2.1,2.5-1.3,4s.1.3.2.4l16.8,23.6,22.6-11.4-8-27.9c-.5-1.6-2.1-2.5-3.7-2.1-.2,0-.4.1-.5.2h0Z"/>
  </g>
  <g>
    <path class="cls-4" d="M733.2,420.2l-10.5-9.3c-.8-.7-1.9-.6-2.6.2l-4.1,4.6c-.7.8-.6,1.9.2,2.6l1.7,1.5-6.1,6.9,7,6.2,6.1-6.9,1.7,1.5c.8.7,1.9.6,2.6-.2h0l4.1-4.6c.7-.8.6-1.9-.2-2.6Z"/>
    <path class="cls-7" d="M706.3,471.7c1.9-15.1,8.5-29.3,18.9-40.4.5-.5.5-1.3.1-1.9l1.8-2-11.1-9.8-1.7,2h-.2c-.6-.7-1.6-.6-2.1,0h0s0,0,0,0c-9.9,13-22.5,21.3-37.9,25-.9.2-1.7.7-2.3,1.4l-32,38.6c-1.5,1.8-1.3,4.4.4,6l25.1,22.2c1.8,1.5,4.5,1.4,6.1-.3l32.7-36.1c1.2-1.3,2-3,2.2-4.8Z"/>
    <path class="cls-6" d="M729.6,419.7c-1.5,1.7-4,1.8-5.7.3s-1.8-4-.3-5.7"/>
    <path class="cls-8" d="M691.3,480.7l-21.9-19.3c-1.2-1.1-3.1-1-4.2.3s-.2.2-.3.4l-15.7,24.4,19,16.8,22.9-17.9c1.3-1,1.5-2.9.5-4.2-.1-.1-.2-.3-.4-.4h0Z"/>
  </g>
  <path class="cls-7" d="M664.5,677.5h-83.7c5.9-31.6,4.5-69.8,0-110.9h83.7c-4.4,41.1-5.7,79.3,0,110.9Z"/>
  <circle class="cls-8" cx="623.2" cy="619" r="20.2"/>
  <g>
    <path class="cls-7" d="M786.5,461.2l28.1,78.8c-31.8,5.1-67.3,19.2-104.5,37.3l-28.1-78.8c40.2-9.7,76.6-21.3,104.5-37.3Z"/>
    <circle class="cls-8" cx="745.3" cy="519.8" r="20.2"/>
  </g>
  <g>
    <path class="cls-7" d="M610.7,503.1l17.7,49.7c-20.4,3.4-43.3,12.5-67.3,24l-17.7-49.7c25.9-6.3,49.3-13.8,67.3-24Z"/>
    <ellipse class="cls-8" cx="584" cy="540.4" rx="13" ry="12.7" transform="translate(-147.7 227.8) rotate(-19.6)"/>
  </g>
  <g>
    <path class="cls-7" d="M801.6,488.6l51.3-12.3c1.2,20.7,7.7,44.4,16.6,69.5l-51.3,12.3c-3.5-26.4-8.4-50.5-16.6-69.5Z"/>
    <ellipse class="cls-8" cx="835.7" cy="519.2" rx="12.7" ry="13" transform="translate(-97.8 208.4) rotate(-13.4)"/>
  </g>
  <polygon class="cls-2" points="322.2 328.5 341 326.8 353 297.7 331.6 285.8 322.2 328.5"/>
  <path class="cls-2" d="M494.7,408.2h0c2.2-5.4-.5-11.6-5.9-13.8-1.1-.4-2.2-.7-3.3-.7l-29.2-1.7-4.3,14.3,30,8.2c5.2,1.4,10.6-1.3,12.6-6.3Z"/>
  <path class="cls-5" d="M463.3,414.7l-.3-26.8-64.8-10.3-49.9-57.2c-5.4-6.2-14.5-7.4-21.3-2.9h0c-7.5,5-9.6,15.1-4.7,22.6.5.8,1.1,1.6,1.8,2.3l41.2,50.7,98,21.7Z"/>
  <path class="cls-3" d="M307.7,716.2h17.1l42.4-191.5,43.9,59.2,25.6,128.1h16.2l-3.4-137.5-57.2-146.9h-56.4c-15.4,27.9-27.5,56.6-13.7,86.3l-14.5,202.4Z"/>
  <path class="cls-3" d="M426.2,727.8c-.7,2.3.6,4.8,2.9,5.6.2,0,.4.1.6.1l41.8,7.4c3.4.6,6.8-1.4,7.8-4.7h0c1-3.2-.4-6.6-3.3-8.1-9.2-4.7-17.1-11.6-23-20-4.6,4.3-9.7,3.9-15.2.7l-5.8.7-5.7,18.3Z"/>
  <path class="cls-3" d="M299.8,727.8c-.7,2.3.6,4.8,2.9,5.6.2,0,.4.1.6.1l41.8,7.4c3.4.6,6.8-1.4,7.8-4.7h0c1-3.2-.4-6.6-3.3-8.1-9.2-4.7-17.1-11.6-23-20-4.6,4.3-9.7,3.9-15.2.7l-5.8.7-5.7,18.3Z"/>
  <circle class="cls-2" cx="353.4" cy="284.5" r="23.9"/>
  <path class="cls-5" d="M332.1,433.9l62.3-1.7-18.3-57.6c11.4-18.2,0-36.5-16.3-54.7l-12.8-8.5-20.5-1.7h0c-8.9,9.5-13.7,22.1-13.5,35.1.4,27.8,5.3,58.1,19.1,89.2Z"/>
  <path class="cls-2" d="M475.3,472.7h0c4.1-4.1,4.1-10.8,0-15-.8-.8-1.7-1.5-2.8-2l-26.1-13.1-9.6,11.4,24.4,19.4c4.2,3.4,10.3,3,14.1-.8Z"/>
  <path class="cls-5" d="M443.9,466.4l10.2-24.8-55.5-35-23.4-72.3c-2.5-7.8-10.4-12.5-18.4-11.1h0c-8.9,1.6-14.8,10.1-13.2,19,.2,1,.4,1.9.8,2.8l17.9,62.8,81.6,58.5Z"/>
  <path class="cls-3" d="M314.1,275.1c0,9.3,6,23.7,13.7,29.9,5.1,4.2,11.9,4,14.5-1.7,2.7-5.8,11.9-19.6,28.2-28.2,21.7-11.5-7.7-31.2-28.2-28.2-15.4,2.3-28.2,12.6-28.2,28.2Z"/>
  <circle class="cls-3" cx="328.6" cy="245.2" r="17.1"/>
  <path class="cls-3" d="M348.3,239.2c0-8.9-6.9-16.3-15.8-17,.4,0,.8,0,1.3,0,9.4,0,17.1,7.6,17.1,17.1s-7.6,17.1-17.1,17.1-.9,0-1.3,0c8.9-.7,15.8-8.1,15.8-17Z"/>
  <ellipse class="cls-2" cx="353.8" cy="287.9" rx="3.8" ry="5.1"/>
  <polygon class="cls-1" points="837.8 684.8 571.9 684.8 515.6 418.7 467.5 418.7 467.5 406.8 525.3 406.8 581.6 672.9 837.8 672.9 837.8 684.8"/>
  <circle class="cls-1" cx="610.8" cy="707.9" r="25.6"/>
  <circle class="cls-1" cx="801.9" cy="707.9" r="25.6"/>
  <path class="cls-1" d="M832.9,679.2h-258.7l-45.6-225.6h347.2c6.8,0,12.3,5.5,12.3,12.3,0,.6,0,1.3-.1,1.9l-42.8,201c-.9,6-6.1,10.4-12.1,10.4ZM577,675.8h255.9c4.4,0,8.1-3.2,8.7-7.5l42.8-201c.8-4.8-2.5-9.4-7.4-10.1-.5,0-.9-.1-1.4-.1h-343l44.3,218.7Z"/>
  <polygon class="cls-1" points="624.5 678.5 594.6 455.7 598 455.1 627.9 677.9 624.5 678.5"/>
  <polygon class="cls-1" points="790.7 676.8 787.3 676.2 816.4 455.1 819.7 455.6 790.7 676.8"/>
  <rect class="cls-1" x="708.1" y="455.4" width="3.4" height="222.8"/>
  <rect class="cls-1" x="709.5" y="352" width="3.4" height="330.3" transform="translate(192.2 1227.1) rotate(-89.9)"/>
  <rect class="cls-1" x="562.8" y="621.5" width="290.2" height="3.4" transform="translate(-4.2 4.9) rotate(-.4)"/>
  <ellipse class="cls-1" cx="472.6" cy="411" rx="18.8" ry="10.2"/>
</svg>