<?xml version="1.0" encoding="UTF-8"?>
<svg id="_레이어_1" data-name="레이어 1" xmlns="http://www.w3.org/2000/svg" version="1.1" viewBox="0 0 824.8 519.6">
  <defs>
    <style>
      .cls-1 {
        fill: #ccc;
      }

      .cls-1, .cls-2, .cls-3, .cls-4, .cls-5, .cls-6, .cls-7, .cls-8, .cls-9, .cls-10, .cls-11 {
        stroke-width: 0px;
      }

      .cls-2 {
        fill: #a0616a;
      }

      .cls-3 {
        fill: #3f3d56;
      }

      .cls-4 {
        fill: #f2f2f2;
      }

      .cls-5 {
        fill: #2f2e41;
      }

      .cls-6 {
        fill: #e6e6e6;
      }

      .cls-7 {
        fill: #000;
        isolation: isolate;
        opacity: .2;
      }

      .cls-8 {
        fill: #f9a826;
      }

      .cls-9 {
        fill: #ffb6b6;
      }

      .cls-10 {
        fill: #fff;
      }

      .cls-11 {
        fill: #ff6584;
      }
    </style>
  </defs>
  <rect class="cls-8" x="530.9" y="67.4" width="43.8" height="9.4" rx="4.7" ry="4.7"/>
  <path class="cls-6" d="M513.4,86.2h78.9c2.6,0,4.7,2.1,4.7,4.7h0c0,2.6-2.1,4.7-4.7,4.7h-78.9c-2.6,0-4.7-2.1-4.7-4.7h0c0-2.6,2.1-4.7,4.7-4.7Z"/>
  <rect class="cls-6" x="508.7" y="104.9" width="88.3" height="9.4" rx="4.7" ry="4.7"/>
  <path class="cls-6" d="M193.9,321.5h-21.7c-.6,0-3.8-1.7-3.8-3.8v-12.1c-.1-9.1,29.8-9.7,29.9,0v12.1c0,2.1-2.3,3.8-4.4,3.8Z"/>
  <path class="cls-8" d="M195,297.4c-1.1-.4-2.2-.5-3.3-.5.3,0,.6-.3.8-.5-.2,0-.4,0-.6,0-.2,0-.4-.1-.6-.3-.2-.1-.3-.4-.3-.6,0-.3.3-.5.3-.8,0-.3-.4-.5-.6-.7-.2-.4-.2-.9.1-1.2.2-.2.4-.4.7-.5-.4-.1-.9-.1-1.3,0,.5-.4.7-1,.5-1.5-.2-.7-.8-1.2-1.5-1.4-.7-.2-1.4-.2-2.2-.2.6-.2.5-1.2,0-1.6s-1.2-.6-1.6-1.1-.4-1.5.2-1.6v-.2c-1.4-.5-2.8.2-3.3,1.5,0,.1,0,.2,0,.3-.1.7.1,1.5-.3,2.2-.5.8-1.6.9-2.6.8-.9-.2-1.9-.1-2.7.4-.7.6-.8,1.6-.2,2.3.3.4.8.6,1.3.6-.6,0-1.2,0-1.8.2l.6.2c.1,0,.2.1.3.2.1,0,.1.2,0,.4,0,.2-.3.2-.5.1l-1.3-.2c.3,0,.4.4.3.6,0,.3-.4.4-.6.3,0,0-.1,0-.2-.1.1.2.2.3.3.5,0,.2,0,.4,0,.6-.3.2-.6.3-.9.1-.1,0-.2,0-.3-.1,0,0,0,0,0,.1,0,.5.3.9.7,1.2-.6,0-1.1.3-1.5.8-.7.8-.7,2,0,2.8-.6-.3-1.3-.4-2-.3-.7,0-1.2.7-1.2,1.4.1.9,1.2,1.2,2.1,1.3,6.9.9,13.9.8,20.8,0,.9,0,1.9-.3,2.7-.7.9-.4,1.5-1.2,1.6-2.2,0-1.1-.8-2.2-1.8-2.6Z"/>
  <path class="cls-1" d="M200.1,307.6c-.2-.7-.8-1.2-1.5-1.2-.7,0-1.3.5-1.9.4-.5,0-1-.6-1.5-.5-.5,0-.8.6-1.1.8h-1c-.4-.3-.6-.9-1.1-1.1-.8-.3-1.4.6-2.2.8-.5,0-1,0-1.4-.3-.4-.2-.9-.4-1.3-.4-.4,0-.8.1-1.1.5,0-.2-.3-.5-.6-.5-.4,0-.7.1-1,.3-.3.2-.7.3-1,.3-.8,0-1.2-1-2-1-1,0-1.4,1.5-2.5,1.3-.5,0-.8-.5-1.3-.8-.5-.2-1-.2-1.5,0l-2.4.5c-.7.2-1.5.2-2.2,0-.5-.2-1-.6-1.6-.4-.5.1-.7.7-1.2.7-.3,0-.6-.1-.9-.3-.5-.2-1.1,0-1.5.4-.3,1.1-.3,2.3-.1,3.4,0,.2,0,.5,0,.7l2.4,9.7c.3,1.5,1,2.6,2.5,2.6h23.7c1.5,0,2.8-1.1,3.1-2.6l2.4-9.7s0,0,0,0c0-1.2,0-2.3-.3-3.5Z"/>
  <path class="cls-7" d="M171.2,306.9l.5,6.1c.2,2,0,4.1,0,6.1,0,1.2.6,2.3.7,3.5,0,.1.2.1.2,0l-.5-6.1-.5-6.1-.3-3.5c0-.1-.2-.1-.2,0h0Z"/>
  <path class="cls-7" d="M175.3,307.1l.2,6.1.2,6.1v3.4c.1.1.3.1.3,0l-.2-6.1-.2-6.1v-3.4c-.1-.1-.3-.1-.3,0Z"/>
  <path class="cls-7" d="M179.3,307.5v5.9c0,0-.1,5.8-.1,5.8v3.3c0,0,0,.1,0,.1,0,0,.1,0,.1-.1v-5.9c0,0,.1-5.8.1-5.8v-3.3c0,0,0-.1,0-.1,0,0-.1,0-.1.1Z"/>
  <path class="cls-7" d="M182.3,307.3v5.9c.1,0,.2,5.9.2,5.9v3.3c0,0,.1.1.2.1,0,0,.1,0,.1-.1v-5.9c-.1,0-.2-5.9-.2-5.9v-3.3c0,0-.1-.1-.2-.1,0,0-.1,0-.1.1h0Z"/>
  <path class="cls-7" d="M186.7,307.1v6.1c.1,0,.3,6.1.3,6.1v3.4c0,0,.1.1.2.1,0,0,.1,0,.1-.1v-6.1c-.1,0-.3-6.1-.3-6.1v-3.4c0,0-.1-.1-.2-.1,0,0,0,0-.1.1Z"/>
  <path class="cls-7" d="M190.3,307.3l.5,6.1.5,6.1.3,3.4c0,.1.2.1.2,0l-.5-6.1-.5-6.1-.3-3.4c0-.1-.2-.1-.2,0Z"/>
  <path class="cls-7" d="M194.4,308l.3,5.6c0,1.9-.4,3.7-.3,5.6l.2,3.2c0,.1.2.1.2,0,0-1.9.4-3.7.3-5.6l-.3-5.6-.2-3.2c0-.1-.2-.1-.2,0Z"/>
  <ellipse class="cls-6" cx="182" cy="292" rx=".8" ry=".6"/>
  <ellipse class="cls-3" cx="187.2" cy="293.3" rx=".8" ry=".6"/>
  <ellipse class="cls-11" cx="180" cy="296.1" rx=".8" ry=".6"/>
  <ellipse class="cls-6" cx="186.7" cy="297" rx=".5" ry=".4"/>
  <ellipse class="cls-3" cx="190" cy="297.8" rx=".5" ry=".4"/>
  <ellipse class="cls-11" cx="185.4" cy="299.6" rx=".5" ry=".4"/>
  <ellipse class="cls-6" cx="191.6" cy="299" rx=".5" ry=".4"/>
  <ellipse class="cls-3" cx="194.8" cy="299.8" rx=".5" ry=".4"/>
  <ellipse class="cls-11" cx="190.3" cy="301.6" rx=".5" ry=".4"/>
  <ellipse class="cls-6" cx="177.9" cy="297.4" rx=".5" ry=".4" transform="translate(-141 433.1) rotate(-82.2)"/>
  <ellipse class="cls-3" cx="176.6" cy="300.6" rx=".5" ry=".4" transform="translate(-145.2 434.5) rotate(-82.2)"/>
  <ellipse class="cls-11" cx="175.5" cy="295.8" rx=".5" ry=".4" transform="translate(-141.4 429.3) rotate(-82.2)"/>
  <ellipse class="cls-6" cx="183.5" cy="295.7" rx=".5" ry=".4" transform="translate(-134.5 437.2) rotate(-82.2)"/>
  <ellipse class="cls-3" cx="182.3" cy="298.9" rx=".5" ry=".4" transform="translate(-138.7 438.6) rotate(-82.2)"/>
  <ellipse class="cls-11" cx="181.1" cy="294.1" rx=".5" ry=".4" transform="translate(-134.9 433.4) rotate(-82.2)"/>
  <ellipse class="cls-3" cx="185" cy="292.3" rx=".5" ry=".4" transform="translate(-129.8 435.7) rotate(-82.2)"/>
  <ellipse class="cls-11" cx="183.9" cy="287.5" rx=".5" ry=".4" transform="translate(-126 430.4) rotate(-82.2)"/>
  <ellipse class="cls-6" cx="383" cy="226.2" rx="7.6" ry="5.3"/>
  <ellipse class="cls-3" cx="431" cy="238.1" rx="7.6" ry="5.3"/>
  <ellipse class="cls-11" cx="364" cy="263.7" rx="7.6" ry="5.3"/>
  <ellipse class="cls-6" cx="471.1" cy="290.9" rx="4.8" ry="3.3"/>
  <ellipse class="cls-3" cx="501.5" cy="298.4" rx="4.8" ry="3.3"/>
  <ellipse class="cls-6" cx="344.7" cy="276.3" rx="4.8" ry="3.3" transform="translate(24 580.1) rotate(-82.2)"/>
  <ellipse class="cls-3" cx="333.2" cy="305.3" rx="4.8" ry="3.3" transform="translate(-14.7 593.7) rotate(-82.2)"/>
  <ellipse class="cls-11" cx="322.9" cy="261.1" rx="4.8" ry="3.3" transform="translate(20.2 545.4) rotate(-82.2)"/>
  <ellipse class="cls-6" cx="396.7" cy="260.5" rx="4.8" ry="3.3" transform="translate(84.4 617.9) rotate(-82.2)"/>
  <ellipse class="cls-11" cx="374.9" cy="245.4" rx="4.8" ry="3.3" transform="translate(80.6 583.2) rotate(-82.2)"/>
  <path class="cls-4" d="M580,500.5c1.3,0,2.4-1,2.5-2.3,0-.7-.2-1.4-.8-1.9,0-.2-.1-.4-.2-.6,1.3-3.3,5-4.9,8.3-3.6,1.6.6,2.9,1.9,3.6,3.5,2.8,6.6,6.5,13.4,4.6,20.7,12-25.4,7.9-56.9-9.8-78.6-5-2.7-8.7-7.4-9.9-13,2.4.8,5.4-1.1,3.6-3.7-.8-1-1.6-1.9-2.4-2.9,9.2-9.8,20.1,5.6,10,18.8,3.3,4.1,6.2,8.6,8.5,13.4-.5-5,.1-10.1,1.9-14.9,1.8-4.4,5.3-8.1,8.3-11.9,2.2-2.9,6.4-3.4,9.2-1.1,1.4,1.1,2.3,2.7,2.5,4.5-3.4,1.1-3.8,6,0,6.7-1.2,11.1-8,20.9-18.1,25.9,3.6,10.2,5.1,21.1,4.2,31.9,1.7-12.6,15.3-15.7,24.8-20.7,1.7-1.1,4-.6,5.1,1.1.5.8.7,1.7.5,2.6-1.3.5-2.6,1.2-3.7,2-1.5,1-1.9,3-.9,4.5.5.8,1.4,1.3,2.4,1.4-4.8,11.8-17.2,19.8-29.9,19.7-1.2,5.3-3,10.5-5.3,15.4h-18.9c0-.2-.1-.4-.2-.6,1.7.1,3.5,0,5.2-.3-4.6-5.5-8.2-8.3-5.5-15.9h0s0,0,0,0Z"/>
  <path class="cls-4" d="M210.8,500.2c-1.3,0-2.4-1-2.5-2.3,0-.7.2-1.4.8-1.9l.2-.6c-1.3-3.3-5-4.9-8.3-3.6-1.6.6-2.9,1.9-3.6,3.5-2.8,6.6-6.5,13.4-4.6,20.7-12-25.4-7.9-56.9,9.8-78.6,5-2.7,8.7-7.4,9.9-13-2.4.8-5.4-1.1-3.6-3.7.8-1,1.6-1.9,2.4-2.9-9.2-9.8-20.1,5.6-10,18.8-3.3,4.1-6.2,8.6-8.5,13.4.5-5-.1-10.1-1.9-14.9-1.8-4.4-5.3-8.1-8.3-11.9-2.2-2.9-6.4-3.4-9.2-1.1-1.4,1.1-2.3,2.7-2.5,4.5,3.4,1.1,3.8,6,0,6.7,1.2,11.1,8,20.9,18.1,25.9-3.6,10.2-5.1,21.1-4.2,31.9-1.7-12.6-15.3-15.7-24.8-20.7-1.7-1.1-4-.6-5.1,1.1-.5.8-.7,1.7-.5,2.6,1.3.5,2.6,1.2,3.7,2,1.5,1,1.9,3,.9,4.5-.5.8-1.4,1.3-2.4,1.4,4.8,11.8,17.2,19.8,29.9,19.7,1.2,5.3,3,10.5,5.3,15.4h18.9c0-.2.1-.4.2-.6-1.7.1-3.5,0-5.2-.3,4.6-5.5,8.2-8.3,5.5-15.9h0s0,0,0,0Z"/>
  <path class="cls-2" d="M258.1,279.5l-2-11.6,30.5-13.8,6.6-11.7c-.6-3.1,1.3-6.1,4.4-6.7,3.1-.6,6.1,1.3,6.7,4.4.5,2.4-.6,4.8-2.7,6.1l-10.8,16.7-32.6,16.5Z"/>
  <polygon class="cls-3" points="248.8 270 262.5 263 266.2 276.6 256.6 283.7 248.8 270"/>
  <polygon class="cls-2" points="218 502 226.3 502 230.2 469.9 218 469.9 218 502"/>
  <path class="cls-5" d="M229,502.7v-5.6h-2.2c0,.1-8.9.7-8.9.7h-2.1c0,.1-1.6,19-1.6,19v1c0,0,5.8,0,5.8,0l.2-1,.9-4.6,2.2,4.6.5,1h15.6c1.9,0,3.5-1.6,3.5-3.5.7-3.1-12.3-9.7-14-11.5h0Z"/>
  <polygon class="cls-2" points="119.6 472.1 126.4 476.8 148.1 452.9 138.1 445.9 119.6 472.1"/>
  <path class="cls-5" d="M128.5,478.4l3.2-4.6-1.9-1.1-7.6-4.7-1.8-1.1-12.1,14.5-.7.8,4.8,3.4.7-.7,3.3-3.2-.8,5-.2,1.1,12.8,9c1.6,1.1,3.8.7,4.9-.9,2.3-2.1-4.5-15.1-4.8-17.5h0Z"/>
  <path class="cls-2" d="M230.8,294.7l-10.7-5-21.3,25.8-13,3.3c-2.8-1.4-6.2-.3-7.6,2.5-1.4,2.8-.3,6.2,2.5,7.6,2.2,1.1,4.8.7,6.6-1l19-6,24.5-27.1Z"/>
  <path class="cls-5" d="M220,336.3s-17.5,11.4-12.9,19c.2.3-37.3,52.3-37.3,52.3l-42.1,45.3,14.5,13.1s40-41.6,46.7-48.6,36-42.2,36-42.2l1.1,43.4-11.2,60.2,16.7-1.1,16.3-60.4,6-68.4-33.7-12.8Z"/>
  <path class="cls-3" d="M232.5,267.7l-7.4,5.6-8.4,17.9,8.1,11s6.8,11.8-4.1,23.2-19.2,23.6-10.5,23.2,44,17.5,44.2,2.8.7-26,.7-26l9.2-23.5s5.5-14,1.6-18.2-9-9.5-9-9.5l-9.4-9.4h-8.5l-6.5,2.9Z"/>
  <path class="cls-2" d="M246.3,233.3c16.5,9.4,3,34.2-13.9,25.4-16.5-9.4-3-34.2,13.9-25.4Z"/>
  <path class="cls-5" d="M255.1,238.5c-1.2,1.5-3.6.8-8.3,1.9,0-1.6-.2-3.2-.6-4.8-.4,1.9-1.1,3.8-2.3,5.4-4.1.5.9,13-1.2,22.2-2.7-19.4-8.4-14.3-5.5-10.5,1.8,2.5.6,9.9-4.9,6.2-9.1,4.3-22.2-17.2-7.7-27.4-.3-5.5,5.8-6.3,9.6-4.7,9.1-6.8,19.5,1.9,20.9,11.7h0Z"/>
  <path class="cls-5" d="M212.7,224.3c-3.7,22.6-23.4-4.2-32.7,18.1-2.9,8.1,2.1,13.8,5.3,20.5.7,5.5-6.4,8.3-7.2,13.4-.2,11.6,18.5,10.9,23.8,3.6,5.4-7.7-1-18,2.2-26.2,4.5-11.4,23-11.5,24.7-24.8-3.1-4.4-11.5-9.5-16-4.6Z"/>
  <path class="cls-5" d="M227.6,226.6c-.1,0-.2.1-.3.2h0c-.1,0-.2.1-.3.2,0,0,0,0,0,0-.1-.1-.3-.3-.4-.4,0,.2,0,.4,0,.6h0c.1.2.3.3.4.5.1,0,.2-.2.4-.3,0,0,.2-.1.2-.2,0-.2,0-.4,0-.6h0ZM231.4,219.5c-2.8-.6-3.7,3-4,4.8-1-6.5-5.3-4.4-3.8,0,.5,1.3,1.2,2.5,2.2,3.5.1.2.3.3.4.5-.2.9.7.7,1.9-.2.9-.6,1.7-1.3,2.4-2.1,2.3-2.4,4.1-5.7,1-6.5ZM231.5,223.1c-.9,1.1-1.9,2.2-2.9,3.1-.3.3-.7.6-1,.9,0,0,0,.1,0,.2,0,0,0,.1,0,.2-.4.6-.8.3-.9-.2,0,0,0,0,0,0-.5-.5-.9-1.1-1.3-1.7-2.6-4.5,1.6-7.6,1.4.8,0,0,0,.2,0,.2,0,.2,0,.4,0,.6h0c.1.2.3.3.4.5.1,0,.2-.2.4-.3,0,0,.2-.1.2-.2,0-.2,0-.4,0-.6h0c.2-1.7.6-4.8,1.4-5.6,1.8-1.4,4.2.1,2.5,2.2h0ZM227.6,226.6c-.1,0-.2.1-.3.2h0c-.1,0-.2.1-.3.2,0,0,0,0,0,0-.1-.1-.3-.3-.4-.4,0,.2,0,.4,0,.6h0c.1.2.3.3.4.5.1,0,.2-.2.4-.3,0,0,.2-.1.2-.2,0-.2,0-.4,0-.6h0Z"/>
  <polygon class="cls-9" points="575.9 503.3 567.8 505.1 556.8 474.7 568.8 472 575.9 503.3"/>
  <path class="cls-5" d="M578.1,511.7l-25,5.7v-.3c-1.3-5.4,2.1-10.7,7.4-11.9h0s3.8-4.5,3.8-4.5l9.3,1.5,2.2-.5,2.3,10h0Z"/>
  <polygon class="cls-9" points="681.8 487.3 674.8 491.8 654.1 466.9 664.5 460.2 681.8 487.3"/>
  <path class="cls-5" d="M686.7,494.4l-21.6,13.8-.2-.3c-3-4.6-1.6-10.8,3-13.8h0s2-5.5,2-5.5l9.3-1.7,1.9-1.2,5.5,8.7Z"/>
  <polygon class="cls-5" points="570.5 351.7 564.4 367.6 535.7 424.1 560.9 489.9 573.9 486.4 563.2 424.1 593.9 386.8 611.8 425.1 663 481.6 674.9 473.8 636.7 415.3 611.4 341.1 570.5 351.7"/>
  <path class="cls-3" d="M601.3,276.5l-10.1-10.8-17.2-2.4-21.1,14.8.2,16.4,10.4,38.6s-4,27.7,7.1,27.4,17.2-5.8,21.7-4.7,23.8,5.9,25,.9,7.7-1.4,7.4-6.2-17.6-39-17.6-39l3-24.1c.7-5.3-3.1-10.2-8.4-10.8h0c-.2,0-.4,0-.5,0h0Z"/>
  <path class="cls-9" d="M670.7,344.6c-3.3.7-6.6-1.4-7.3-4.7,0-.4-.1-.7-.1-1.1l-46.2-18.2,8.8-7.2,43.8,19c3.4.1,6.1,3,6,6.4,0,2.9-2.1,5.3-4.9,5.9Z"/>
  <path class="cls-3" d="M605.2,278.5s-7.9,0-8.8,8.9,15.5,31.7,18.1,35.4c.8,1.2,4.2,2.5,8.6,3.8,1.9.6,4.1,1.1,6.2,1.7,1.2.3,1.8,2.4,3,2.7,1.2.3,3.1-1.2,4.3-1,5.5,1.2,9.8,2,9.8,2l10.3-7c-5.2-7.6-15.1-10.8-26.3-12.6l-25.2-33.8Z"/>
  <path class="cls-9" d="M489.4,236.9c.5,3.4,3.7,5.7,7,5.1.4,0,.7-.1,1.1-.3l33.4,36.8,3.6-10.8-33.3-34.3c-1.3-3.2-4.9-4.6-8.1-3.3-2.6,1.1-4.2,3.9-3.7,6.7h0Z"/>
  <path class="cls-3" d="M574.3,274.7s2.8,7.3-5.2,11.4-35.2-3.3-39.6-4.4c-1.4-.3-3.8-3.1-6.6-6.7-1.2-1.6-2.5-3.4-3.8-5.2-.7-1.1-2.9-.8-3.6-1.9-.7-1,0-3.4-.6-4.4-3.1-4.7-5.3-8.5-5.3-8.5l2.9-12.1c9,2.1,15.4,10.3,21.1,20.1l40.6,11.6Z"/>
  <circle class="cls-9" cx="583" cy="244.2" r="16.4"/>
  <path class="cls-5" d="M601.7,234.8c-1.7-2.8-4.9-4.3-8.1-4-.9-6-6.5-10.2-12.6-9.4-2.2.3-4.3,1.3-6,2.9-1-.7-2.3-.8-3.4-.3-1.1.5-2,1.2-2.7,2.2-3.7,4.6-4.5,10.8-2.2,16.2-.4-1.4,1-2.7,2.4-3,1.4-.3,2.9,0,4.3-.2,1.8-.3,3.5-1.3,5.3-1.6,1.6-.1,3.1,0,4.6.6,1.5.5,3,.7,4.6.6,1.5-.2,3.5,5.7,3.5,9.8,0,.8.2,1.8.9,2,.9.2,1.5-1.1,2.4-1.5.9-.2,1.8.2,2,1.1.2.8,0,1.7-.5,2.4-.6.7-1.2,1.2-1.9,1.7l.4.3c.7.8,1.9.9,2.8.3.8-.6,1.5-1.4,2-2.3,1.7-2.7,3-5.6,3.7-8.8.7-3.1.1-6.4-1.5-9.2Z"/>
  <ellipse class="cls-3" cx="410.7" cy="228.4" rx="4.8" ry="3.3" transform="translate(128.4 604.1) rotate(-82.2)"/>
  <path class="cls-6" d="M682.6,341h-21.7c-.6,0-3.8-1.7-3.8-3.8v-12.1c-.1-9.1,29.8-9.7,29.9,0v12.1c0,2.1-2.3,3.8-4.4,3.8Z"/>
  <path class="cls-8" d="M683.7,316.9c-1.1-.4-2.2-.5-3.3-.5.3,0,.6-.3.8-.5-.2,0-.4,0-.6,0-.2,0-.4-.1-.6-.3-.2-.1-.3-.4-.3-.6,0-.3.3-.5.3-.8,0-.3-.4-.5-.6-.7-.2-.4-.2-.9.1-1.2.2-.2.4-.4.7-.5-.4-.1-.9-.1-1.3,0,.5-.4.7-1,.5-1.5-.2-.7-.8-1.2-1.5-1.4-.7-.2-1.4-.2-2.2-.2.6-.2.5-1.2,0-1.6s-1.2-.6-1.6-1.1-.4-1.5.2-1.6v-.2c-1.4-.5-2.8.2-3.3,1.5,0,.1,0,.2,0,.3-.1.7.1,1.5-.3,2.2-.5.8-1.6.9-2.6.8-.9-.2-1.9-.1-2.7.4-.7.6-.8,1.6-.2,2.3.3.4.8.6,1.3.6-.6,0-1.2,0-1.8.2l.6.2c.1,0,.2.1.3.2.1,0,.1.2,0,.4,0,.2-.3.2-.5.1l-1.3-.2c.3,0,.4.4.3.6s-.4.4-.6.3c0,0-.1,0-.2-.1.1.2.2.3.3.5,0,.2,0,.4,0,.6-.3.2-.6.3-.9.1-.1,0-.2,0-.3-.1,0,0,0,0,0,.1,0,.5.3.9.7,1.2-.6,0-1.1.3-1.5.8-.7.8-.7,2,0,2.8-.6-.3-1.3-.4-2-.3-.7,0-1.2.7-1.2,1.4.1.9,1.2,1.2,2.1,1.3,6.9.9,13.9.8,20.8,0,.9,0,1.9-.3,2.7-.7.9-.4,1.5-1.2,1.6-2.2,0-1.1-.8-2.2-1.8-2.6Z"/>
  <path class="cls-1" d="M688.9,327.1c-.2-.7-.8-1.2-1.5-1.2-.7,0-1.3.5-1.9.4-.5,0-1-.6-1.5-.5-.5,0-.8.6-1.1.8h-1c-.4-.3-.6-.9-1.1-1.1-.8-.3-1.4.6-2.2.8-.5,0-1,0-1.4-.3-.4-.2-.9-.4-1.3-.4-.4,0-.8.1-1.1.5,0-.2-.3-.5-.6-.5-.4,0-.7.1-1,.3-.3.2-.7.3-1,.3-.8,0-1.2-1-2-1-1,0-1.4,1.5-2.5,1.3-.5,0-.8-.5-1.3-.8-.5-.2-1-.2-1.5,0l-2.4.5c-.7.2-1.5.2-2.2,0-.5-.2-1-.6-1.6-.4-.5.1-.7.7-1.2.7-.3,0-.6-.1-.9-.3-.5-.2-1.1,0-1.5.4-.3,1.1-.3,2.3-.1,3.4,0,.2,0,.5,0,.7l2.4,9.7c.3,1.5,1,2.6,2.5,2.6h23.7c1.5,0,2.8-1.1,3.1-2.6l2.4-9.7s0,0,0,0c0-1.2,0-2.3-.3-3.5Z"/>
  <path class="cls-7" d="M659.9,326.4l.5,6.2c.2,2,0,4.1,0,6.1,0,1.2.6,2.3.7,3.5,0,.1.2.1.2,0l-.5-6.2-.5-6.2-.3-3.5c0-.1-.2-.1-.2,0Z"/>
  <path class="cls-7" d="M664,326.6l.2,6.1.2,6.1v3.4c.1.1.3.1.3,0l-.2-6.1-.2-6.1v-3.4c-.1-.1-.3-.1-.3,0Z"/>
  <path class="cls-7" d="M668,327v5.9c0,0-.1,5.8-.1,5.8v3.3c0,0,0,.1,0,.1,0,0,.1,0,.1-.1v-5.9c0,0,.1-5.8.1-5.8v-3.3c0,0,0-.1,0-.1,0,0-.1,0-.1.1Z"/>
  <path class="cls-7" d="M671,326.8v5.9c.1,0,.2,5.9.2,5.9v3.3c0,0,.1.1.2.1,0,0,.1,0,.1-.1v-5.9c-.1,0-.2-5.9-.2-5.9v-3.3c0,0-.1-.1-.2-.1,0,0-.1,0-.1.1Z"/>
  <path class="cls-7" d="M675.4,326.5v6.1c.1,0,.3,6.1.3,6.1v3.4c0,0,.1.1.2.1,0,0,.1,0,.1-.1v-6.1c-.1,0-.3-6.1-.3-6.1v-3.4c0,0-.1-.1-.2-.1,0,0-.1,0-.1.1Z"/>
  <path class="cls-7" d="M679,326.7l.5,6.1.5,6.1.3,3.4c0,.1.2.1.2,0l-.5-6.1-.5-6.1-.3-3.4c0-.1-.2-.1-.2,0Z"/>
  <path class="cls-7" d="M683.1,327.4l.3,5.6c0,1.9-.4,3.7-.3,5.6l.2,3.2c0,.1.2.1.2,0,0-1.9.4-3.7.3-5.6l-.3-5.6-.2-3.2c0-.1-.2-.1-.2,0Z"/>
  <ellipse class="cls-6" cx="670.7" cy="311.5" rx=".8" ry=".6"/>
  <ellipse class="cls-3" cx="675.9" cy="312.8" rx=".8" ry=".6"/>
  <ellipse class="cls-11" cx="668.7" cy="315.5" rx=".8" ry=".6"/>
  <ellipse class="cls-6" cx="675.4" cy="316.5" rx=".5" ry=".4"/>
  <ellipse class="cls-3" cx="678.7" cy="317.3" rx=".5" ry=".4"/>
  <ellipse class="cls-11" cx="674.1" cy="319.1" rx=".5" ry=".4"/>
  <ellipse class="cls-6" cx="680.3" cy="318.5" rx=".5" ry=".4"/>
  <ellipse class="cls-3" cx="683.5" cy="319.3" rx=".5" ry=".4"/>
  <ellipse class="cls-11" cx="679" cy="321.1" rx=".5" ry=".4"/>
  <ellipse class="cls-6" cx="666.6" cy="316.9" rx=".5" ry=".4" transform="translate(261.7 934) rotate(-82.2)"/>
  <ellipse class="cls-3" cx="665.3" cy="320" rx=".5" ry=".4" transform="translate(257.5 935.5) rotate(-82.2)"/>
  <ellipse class="cls-11" cx="664.2" cy="315.3" rx=".5" ry=".4" transform="translate(261.3 930.3) rotate(-82.2)"/>
  <ellipse class="cls-6" cx="672.2" cy="315.2" rx=".5" ry=".4" transform="translate(268.2 938.1) rotate(-82.2)"/>
  <ellipse class="cls-3" cx="671" cy="318.3" rx=".5" ry=".4" transform="translate(264 939.6) rotate(-82.2)"/>
  <ellipse class="cls-11" cx="669.9" cy="313.6" rx=".5" ry=".4" transform="translate(267.8 934.4) rotate(-82.2)"/>
  <ellipse class="cls-3" cx="673.7" cy="311.7" rx=".5" ry=".4" transform="translate(272.9 936.6) rotate(-82.2)"/>
  <ellipse class="cls-11" cx="672.6" cy="307" rx=".5" ry=".4" transform="translate(276.7 931.4) rotate(-82.2)"/>
  <path class="cls-1" d="M824.8,518.4c-.8,2.3-824,.8-824.8-1.5.8-2.3,824-.8,824.8,1.5Z"/>
  <path class="cls-10" d="M407.2,371.6h-20.6c-1.4,0-2.6,1.2-2.6,2.6s1.2,2.6,2.6,2.6h20.6c1.4,0,2.6-1.2,2.6-2.6s-1.2-2.6-2.6-2.6Z"/>
  <path class="cls-8" d="M248.9,90.8h34.4c2.6,0,4.7,2.1,4.7,4.7h0c0,2.6-2.1,4.7-4.7,4.7h-34.4c-2.6,0-4.7-2.1-4.7-4.7h0c0-2.6,2.1-4.7,4.7-4.7Z"/>
  <path class="cls-6" d="M226.7,109.6h78.9c2.6,0,4.7,2.1,4.7,4.7h0c0,2.6-2.1,4.7-4.7,4.7h-78.9c-2.6,0-4.7-2.1-4.7-4.7h0c0-2.6,2.1-4.7,4.7-4.7Z"/>
  <rect class="cls-6" x="222" y="128.3" width="88.3" height="9.4" rx="4.7" ry="4.7"/>
  <polygon class="cls-6" points="300.7 228.8 298.7 228.8 298.7 153.8 156.1 153.8 156.1 151.8 300.7 151.8 300.7 228.8"/>
  <polygon class="cls-6" points="489.2 224.9 487.2 224.9 487.2 147.8 631.8 147.8 631.8 149.8 489.2 149.8 489.2 224.9"/>
  <path class="cls-10" d="M650.2,157.5c-1,0-1.9-.5-2.5-1.2l-7.6-10.1c-1-1.4-.8-3.3.6-4.3,1.4-1,3.3-.8,4.3.6h0s5,6.6,5,6.6l12.7-19.1c.9-1.4,2.9-1.8,4.3-.9s1.8,2.9.9,4.3h0l-15.2,22.7c-.6.8-1.5,1.3-2.5,1.4,0,0,0,0,0,0Z"/>
  <path class="cls-6" d="M308.7,237.7h-21.7c-.6,0-3.8-1.7-3.8-3.8v-12.1c-.1-9.1,29.8-9.7,29.9,0v12.1c0,2.1-2.3,3.8-4.4,3.8Z"/>
  <path class="cls-8" d="M309.8,213.6c-1.1-.4-2.2-.5-3.3-.5.3,0,.6-.3.8-.5-.2,0-.4,0-.6,0-.2,0-.4-.1-.6-.3-.2-.1-.3-.4-.3-.6,0-.3.3-.5.3-.8,0-.3-.4-.5-.6-.7-.2-.4-.2-.9.1-1.2.2-.2.4-.4.7-.5-.4-.1-.9-.1-1.3,0,.5-.4.7-1,.5-1.5-.2-.7-.8-1.2-1.5-1.4-.7-.2-1.4-.2-2.2-.2.6-.2.5-1.2,0-1.6s-1.2-.6-1.6-1.1-.4-1.5.2-1.6v-.2c-1.4-.5-2.8.2-3.3,1.5,0,.1,0,.2,0,.3-.1.7.1,1.5-.3,2.2-.5.8-1.6.9-2.6.8-.9-.2-1.9-.1-2.7.4-.7.6-.8,1.6-.2,2.3.3.4.8.6,1.3.6-.6,0-1.2,0-1.8.2l.6.2c.1,0,.2.1.3.2.1,0,.1.2,0,.4,0,.2-.3.2-.5.1l-1.3-.2c.3,0,.4.4.3.6,0,.3-.4.4-.6.3,0,0-.1,0-.2-.1.1.2.2.3.3.5,0,.2,0,.4,0,.6-.3.2-.6.3-.9.1-.1,0-.2,0-.3-.1,0,0,0,0,0,.1,0,.5.3.9.7,1.2-.6,0-1.1.3-1.5.8-.7.8-.7,2,0,2.8-.6-.3-1.3-.4-2-.3-.7,0-1.2.7-1.2,1.4.1.9,1.2,1.2,2.1,1.3,6.9.9,13.9.8,20.8,0,.9,0,1.9-.3,2.7-.7.9-.4,1.5-1.2,1.6-2.2,0-1.1-.8-2.2-1.8-2.6Z"/>
  <path class="cls-1" d="M314.9,223.8c-.2-.7-.8-1.2-1.5-1.2-.7,0-1.3.5-1.9.4-.5,0-1-.6-1.5-.5-.5,0-.8.6-1.1.8h-1c-.4-.3-.6-.9-1.1-1.1-.8-.3-1.4.6-2.2.8-.5,0-1,0-1.4-.3-.4-.2-.9-.4-1.3-.4-.4,0-.8.1-1.1.5,0-.2-.3-.5-.6-.5-.4,0-.7.1-1,.3-.3.2-.7.3-1,.3-.8,0-1.2-1-2-1-1,0-1.4,1.5-2.5,1.3-.5,0-.8-.5-1.3-.8-.5-.2-1-.2-1.5,0l-2.4.5c-.7.2-1.5.2-2.2,0-.5-.2-1-.6-1.6-.4-.5.1-.7.7-1.2.7-.3,0-.6-.1-.9-.3-.5-.2-1.1,0-1.5.4-.3,1.1-.3,2.3-.1,3.4,0,.2,0,.5,0,.7l2.4,9.7c.3,1.5,1,2.6,2.5,2.6h23.7c1.5,0,2.8-1.1,3.1-2.6l2.4-9.7s0,0,0,0c0-1.2,0-2.3-.3-3.5Z"/>
  <path class="cls-7" d="M286,223.1l.5,6.1c.2,2,0,4.1,0,6.1,0,1.2.6,2.3.7,3.5,0,.1.2.1.2,0l-.5-6.1-.5-6.1-.3-3.5c0-.1-.2-.1-.2,0Z"/>
  <path class="cls-7" d="M290.1,223.3l.2,6.1.2,6.1v3.4c.1.1.3.1.3,0l-.2-6.1-.2-6.1v-3.4c-.1-.1-.3-.1-.3,0Z"/>
  <path class="cls-7" d="M294.1,223.7v5.9c0,0-.1,5.8-.1,5.8v3.3c0,0,0,.1,0,.1,0,0,.1,0,.1-.1v-5.9c0,0,.1-5.8.1-5.8v-3.3c0,0,0-.1,0-.1,0,0-.1,0-.1.1Z"/>
  <path class="cls-7" d="M297.1,223.5v5.9c.1,0,.2,5.9.2,5.9v3.3c0,0,.1.1.2.1,0,0,.1,0,.1-.1v-5.9c-.1,0-.2-5.9-.2-5.9v-3.3c0,0-.1-.1-.2-.1,0,0-.1,0-.1.1Z"/>
  <path class="cls-7" d="M301.5,223.3v6.1c.1,0,.3,6.1.3,6.1v3.4c0,0,.1.1.2.1,0,0,.1,0,.1-.1v-6.1c-.1,0-.3-6.1-.3-6.1v-3.4c0,0-.1-.1-.2-.1,0,0-.1,0-.1.1Z"/>
  <path class="cls-7" d="M305.1,223.4l.5,6.1.5,6.1.3,3.4c0,.1.2.1.2,0l-.5-6.1-.5-6.1-.3-3.4c0-.1-.2-.1-.2,0Z"/>
  <path class="cls-7" d="M309.2,224.2l.3,5.6c0,1.9-.4,3.7-.3,5.6l.2,3.2c0,.1.2.1.2,0,0-1.9.4-3.7.3-5.6l-.3-5.6-.2-3.2c0-.1-.2-.1-.2,0Z"/>
  <ellipse class="cls-6" cx="296.8" cy="208.2" rx=".8" ry=".6"/>
  <ellipse class="cls-3" cx="302" cy="209.5" rx=".8" ry=".6"/>
  <ellipse class="cls-11" cx="294.8" cy="212.3" rx=".8" ry=".6"/>
  <ellipse class="cls-6" cx="301.5" cy="213.2" rx=".5" ry=".4"/>
  <ellipse class="cls-3" cx="304.8" cy="214" rx=".5" ry=".4"/>
  <ellipse class="cls-11" cx="300.2" cy="215.8" rx=".5" ry=".4"/>
  <ellipse class="cls-6" cx="306.4" cy="215.2" rx=".5" ry=".4"/>
  <ellipse class="cls-3" cx="309.6" cy="216" rx=".5" ry=".4"/>
  <ellipse class="cls-11" cx="305" cy="217.8" rx=".5" ry=".4"/>
  <ellipse class="cls-6" cx="292.7" cy="213.6" rx=".5" ry=".4" transform="translate(41.1 474.4) rotate(-82.2)"/>
  <ellipse class="cls-3" cx="291.4" cy="216.8" rx=".5" ry=".4" transform="translate(36.9 475.9) rotate(-82.2)"/>
  <ellipse class="cls-11" cx="290.3" cy="212" rx=".5" ry=".4" transform="translate(40.7 470.7) rotate(-82.2)"/>
  <ellipse class="cls-6" cx="298.3" cy="211.9" rx=".5" ry=".4" transform="translate(47.6 478.5) rotate(-82.2)"/>
  <ellipse class="cls-3" cx="297.1" cy="215.1" rx=".5" ry=".4" transform="translate(43.5 480) rotate(-82.2)"/>
  <ellipse class="cls-11" cx="295.9" cy="210.3" rx=".5" ry=".4" transform="translate(47.2 474.8) rotate(-82.2)"/>
  <ellipse class="cls-3" cx="299.8" cy="208.4" rx=".5" ry=".4" transform="translate(52.4 477) rotate(-82.2)"/>
  <ellipse class="cls-11" cx="298.7" cy="203.7" rx=".5" ry=".4" transform="translate(56.2 471.8) rotate(-82.2)"/>
  <path class="cls-6" d="M500.1,233.5h-21.7c-.6,0-3.8-1.7-3.8-3.8v-12.1c-.1-9.1,29.8-9.7,29.9,0v12.1c0,2.1-2.3,3.8-4.4,3.8Z"/>
  <path class="cls-8" d="M501.2,209.4c-1.1-.4-2.2-.5-3.3-.5.3,0,.6-.3.8-.5-.2,0-.4,0-.6,0-.2,0-.4-.1-.6-.3-.2-.1-.3-.4-.3-.6,0-.3.3-.5.3-.8,0-.3-.4-.5-.6-.7-.2-.4-.2-.9.1-1.2.2-.2.4-.4.7-.5-.4-.1-.9-.1-1.3,0,.5-.4.7-1,.5-1.5-.2-.7-.8-1.2-1.5-1.4-.7-.2-1.4-.2-2.2-.2.6-.2.5-1.2,0-1.6s-1.2-.6-1.6-1.1-.4-1.5.2-1.6v-.2c-1.4-.5-2.8.2-3.3,1.5,0,.1,0,.2,0,.3-.1.7.1,1.5-.3,2.2-.5.8-1.6.9-2.6.8-.9-.2-1.9-.1-2.7.4-.7.6-.8,1.6-.2,2.3.3.4.8.6,1.3.6-.6,0-1.2,0-1.8.2l.6.2c.1,0,.2.1.3.2.1,0,.1.2,0,.4,0,.2-.3.2-.5.1l-1.3-.2c.3,0,.4.4.3.6s-.4.4-.6.3c0,0-.1,0-.2-.1.1.2.2.3.3.5,0,.2,0,.4,0,.6-.3.2-.6.3-.9.1-.1,0-.2,0-.3-.1,0,0,0,0,0,.1,0,.5.3.9.7,1.2-.6,0-1.1.3-1.5.8-.7.8-.7,2,0,2.8-.6-.3-1.3-.4-2-.3-.7,0-1.2.7-1.2,1.4.1.9,1.2,1.2,2.1,1.3,6.9.9,13.9.8,20.8,0,.9,0,1.9-.3,2.7-.7.9-.4,1.5-1.2,1.6-2.2,0-1.1-.8-2.2-1.8-2.6Z"/>
  <path class="cls-1" d="M506.4,219.6c-.2-.7-.8-1.2-1.5-1.2-.7,0-1.3.5-1.9.4-.5,0-1-.6-1.5-.5-.5,0-.8.6-1.1.8h-1c-.4-.3-.6-.9-1.1-1.1-.8-.3-1.4.6-2.2.8-.5,0-1,0-1.4-.3-.4-.2-.9-.4-1.3-.4-.4,0-.8.1-1.1.5,0-.2-.3-.5-.6-.5-.4,0-.7.1-1,.3-.3.2-.7.3-1,.3-.8,0-1.2-1-2-1-1,0-1.4,1.5-2.5,1.3-.5,0-.8-.5-1.3-.8-.5-.2-1-.2-1.5,0l-2.4.5c-.7.2-1.5.2-2.2,0-.5-.2-1-.6-1.6-.4-.5.1-.7.7-1.2.7-.3,0-.6-.1-.9-.3-.5-.2-1.1,0-1.5.4-.3,1.1-.3,2.3-.1,3.4,0,.2,0,.5,0,.7l2.4,9.7c.3,1.5,1,2.6,2.5,2.6h23.7c1.5,0,2.8-1.1,3.1-2.6l2.4-9.7s0,0,0,0c0-1.2,0-2.3-.3-3.5Z"/>
  <path class="cls-7" d="M477.4,218.9l.5,6.1c.2,2,0,4.1,0,6.1,0,1.2.6,2.3.7,3.5,0,.1.2.1.2,0l-.5-6.1-.5-6.1-.3-3.5c0-.1-.2-.1-.2,0Z"/>
  <path class="cls-7" d="M481.5,219.1l.2,6.1.2,6.1v3.4c.1.1.3.1.3,0l-.2-6.1-.2-6.1v-3.4c-.1-.1-.3-.1-.3,0Z"/>
  <path class="cls-7" d="M485.5,219.5v5.9c0,0-.1,5.8-.1,5.8v3.3c0,0,0,.1,0,.1,0,0,.1,0,.1-.1v-5.9c0,0,.1-5.8.1-5.8v-3.3c0,0,0-.1,0-.1,0,0-.1,0-.1.1Z"/>
  <path class="cls-7" d="M488.5,219.3v5.9c.1,0,.2,5.9.2,5.9v3.3c0,0,.1.1.2.1,0,0,.1,0,.1-.1v-5.9c-.1,0-.2-5.9-.2-5.9v-3.3c0,0-.1-.1-.2-.1,0,0-.1,0-.1.1Z"/>
  <path class="cls-7" d="M492.9,219v6.1c.1,0,.3,6.1.3,6.1v3.4c0,0,.1.1.2.1,0,0,.1,0,.1-.1v-6.1c-.1,0-.3-6.1-.3-6.1v-3.4c0,0-.1-.1-.2-.1,0,0-.1,0-.1.1Z"/>
  <path class="cls-7" d="M496.5,219.2l.5,6.1.5,6.1.3,3.4c0,.1.2.1.2,0l-.5-6.1-.5-6.1-.3-3.4c0-.1-.2-.1-.2,0Z"/>
  <path class="cls-7" d="M500.6,219.9l.3,5.6c0,1.9-.4,3.7-.3,5.6l.2,3.2c0,.1.2.1.2,0,0-1.9.4-3.7.3-5.6l-.3-5.6-.2-3.2c0-.1-.2-.1-.2,0Z"/>
  <ellipse class="cls-6" cx="488.2" cy="204" rx=".8" ry=".6"/>
  <ellipse class="cls-3" cx="493.4" cy="205.3" rx=".8" ry=".6"/>
  <ellipse class="cls-11" cx="486.2" cy="208" rx=".8" ry=".6"/>
  <ellipse class="cls-6" cx="492.9" cy="209" rx=".5" ry=".4"/>
  <ellipse class="cls-3" cx="496.2" cy="209.8" rx=".5" ry=".4"/>
  <ellipse class="cls-11" cx="491.6" cy="211.6" rx=".5" ry=".4"/>
  <ellipse class="cls-6" cx="497.8" cy="211" rx=".5" ry=".4"/>
  <ellipse class="cls-3" cx="501" cy="211.8" rx=".5" ry=".4"/>
  <ellipse class="cls-11" cx="496.5" cy="213.5" rx=".5" ry=".4"/>
  <ellipse class="cls-6" cx="484.1" cy="209.4" rx=".5" ry=".4" transform="translate(210.6 660.4) rotate(-82.2)"/>
  <ellipse class="cls-3" cx="482.9" cy="212.5" rx=".5" ry=".4" transform="translate(206.4 661.9) rotate(-82.2)"/>
  <ellipse class="cls-11" cx="481.7" cy="207.8" rx=".5" ry=".4" transform="translate(210.2 656.6) rotate(-82.2)"/>
  <ellipse class="cls-6" cx="489.7" cy="207.7" rx=".5" ry=".4" transform="translate(217.1 664.5) rotate(-82.2)"/>
  <ellipse class="cls-3" cx="488.5" cy="210.8" rx=".5" ry=".4" transform="translate(212.9 666) rotate(-82.2)"/>
  <ellipse class="cls-11" cx="487.4" cy="206.1" rx=".5" ry=".4" transform="translate(216.7 660.7) rotate(-82.2)"/>
  <ellipse class="cls-3" cx="491.2" cy="204.2" rx=".5" ry=".4" transform="translate(221.9 663) rotate(-82.2)"/>
  <ellipse class="cls-11" cx="490.1" cy="199.5" rx=".5" ry=".4" transform="translate(225.6 657.8) rotate(-82.2)"/>
</svg>